<?xml version="1.0" encoding="utf-8"?><!DOCTYPE svg PUBLIC "-//W3C//DTD SVG 1.1//EN" "http://www.w3.org/Graphics/SVG/1.1/DTD/svg11.dtd"><svg viewBox="0 0 246 246" xmlns="http://www.w3.org/2000/svg" xmlns:xlink="http://www.w3.org/1999/xlink"><style>:root>svg{display:none}:root>svg:target{display:block}</style><svg fill="none" viewBox="0 0 13 11" id="arrow" xmlns="http://www.w3.org/2000/svg"><path d="M.172 6.073h10.444l-4.132 4.1.817.812L12.828 5.5 7.301.015l-.817.811 4.132 4.1H.172v1.147z" fill="#000"/></svg><svg fill="none" viewBox="0 0 60 60" id="facebook" xmlns="http://www.w3.org/2000/svg"><path d="M60 29.901C60 13.387 46.569 0 30 0 13.431 0 0 13.387 0 29.901 0 44.826 10.97 57.196 25.313 59.44V38.545h-7.618V29.9h7.617v-6.587c0-7.494 4.48-11.634 11.332-11.634 3.282 0 6.715.584 6.715.584v7.359h-3.783c-3.726 0-4.889 2.305-4.889 4.67V29.9h8.32l-1.33 8.644h-6.99v20.894C49.03 57.196 60 44.826 60 29.901z" fill="#fff"/></svg><svg fill="none" viewBox="0 0 43 43" id="hole" xmlns="http://www.w3.org/2000/svg"><path d="M42.173 21.5C42.173 10.083 32.917.827 21.5.827 10.083.827.827 10.083.827 21.5c0 11.417 9.256 20.673 20.673 20.673 11.417 0 20.673-9.256 20.673-20.673z" stroke="#000" stroke-width="1.02"/></svg><svg fill="none" viewBox="0 0 60 60" id="linkedIn" xmlns="http://www.w3.org/2000/svg"><path d="M30 0C13.434 0 0 13.434 0 30c0 16.566 13.434 30 30 30 16.566 0 30-13.434 30-30C60 13.434 46.566 0 30 0zm-8.718 45.352h-7.306V23.37h7.306v21.982zM17.63 20.369h-.047c-2.452 0-4.038-1.688-4.038-3.797 0-2.157 1.635-3.799 4.134-3.799 2.5 0 4.037 1.642 4.085 3.799 0 2.109-1.586 3.797-4.134 3.797zm29.999 24.983h-7.306v-11.76c0-2.955-1.058-4.97-3.701-4.97-2.019 0-3.22 1.359-3.749 2.671-.193.47-.24 1.126-.24 1.783v12.276h-7.306s.095-19.92 0-21.982h7.306v3.113c.97-1.498 2.708-3.629 6.584-3.629 4.807 0 8.412 3.142 8.412 9.893v12.605z" fill="#fff"/></svg><svg viewBox="0 0 120 120" id="moon" xmlns="http://www.w3.org/2000/svg"><path fill="#010101" d="M96.484 92.7c-27.499 0-49.792-22.294-49.792-49.794 0-15.768 7.338-29.815 18.777-38.938-29.814 1.114-53.646 25.62-53.646 55.706 0 30.794 24.965 55.757 55.759 55.757 19.959 0 37.459-10.493 47.311-26.262A49.574 49.574 0 0196.484 92.7z"/></svg><svg viewBox="0 0 246 246" id="sun" xmlns="http://www.w3.org/2000/svg"><path d="M189.024 122.5c0 36.188-29.336 65.524-65.524 65.524S57.976 158.688 57.976 122.5 87.312 56.976 123.5 56.976s65.524 29.336 65.524 65.524zM122.667 43c4.143 0 7.5-3.357 7.5-7.5v-28c0-4.143-3.357-7.5-7.5-7.5s-7.5 3.357-7.5 7.5v28c0 4.143 3.357 7.5 7.5 7.5zm61.777 25.438a7.478 7.478 0 005.304-2.197l14.849-14.85a7.498 7.498 0 00-.001-10.606 7.5 7.5 0 00-10.606.001l-14.849 14.85a7.498 7.498 0 005.303 12.802zm5.922 109.702a7.5 7.5 0 00-10.607 10.607l14.85 14.85c1.465 1.464 3.385 2.196 5.304 2.196s3.839-.732 5.304-2.196a7.5 7.5 0 000-10.607l-14.851-14.85zm-133.113.619l-14.85 14.85a7.5 7.5 0 1010.608 10.607l14.85-14.85a7.5 7.5 0 10-10.608-10.607zm-.619-111.9a7.476 7.476 0 005.304 2.197 7.498 7.498 0 005.304-12.802l-14.849-14.85a7.5 7.5 0 00-10.606-.001 7.498 7.498 0 00-.001 10.606l14.848 14.85zM238.5 114.5h-28c-4.143 0-7.5 3.357-7.5 7.5s3.357 7.5 7.5 7.5h28c4.143 0 7.5-3.357 7.5-7.5s-3.357-7.5-7.5-7.5zM123.667 202a7.499 7.499 0 00-7.5 7.5v29c0 4.143 3.357 7.5 7.5 7.5s7.5-3.357 7.5-7.5v-29c0-4.143-3.357-7.5-7.5-7.5zM44 123c0-4.143-3.357-7.5-7.5-7.5h-29c-4.143 0-7.5 3.357-7.5 7.5s3.357 7.5 7.5 7.5h29c4.143 0 7.5-3.357 7.5-7.5z"/></svg></svg>